<mxfile host="app.diagrams.net" agent="Mozilla/5.0 (Windows NT 10.0; Win64; x64) AppleWebKit/537.36 (KHTML, like Gecko) Chrome/137.0.0.0 Safari/537.36" version="27.1.4">
  <diagram name="Страница — 1" id="UU6X1Q2LLAYiboO9e5UY">
    <mxGraphModel dx="786" dy="469" grid="1" gridSize="10" guides="1" tooltips="1" connect="1" arrows="1" fold="1" page="1" pageScale="1" pageWidth="827" pageHeight="1169" math="0" shadow="0">
      <root>
        <mxCell id="0" />
        <mxCell id="1" parent="0" />
        <mxCell id="QgKklc_-N7JBqiMBvKZP-86" value="" style="rounded=0;whiteSpace=wrap;html=1;" vertex="1" parent="1">
          <mxGeometry x="160" y="460" width="20" height="40" as="geometry" />
        </mxCell>
        <mxCell id="QgKklc_-N7JBqiMBvKZP-87" value="" style="rounded=0;whiteSpace=wrap;html=1;" vertex="1" parent="1">
          <mxGeometry x="190" y="460" width="20" height="40" as="geometry" />
        </mxCell>
        <mxCell id="QgKklc_-N7JBqiMBvKZP-88" value="" style="rounded=0;whiteSpace=wrap;html=1;" vertex="1" parent="1">
          <mxGeometry x="220" y="460" width="20" height="40" as="geometry" />
        </mxCell>
        <mxCell id="QgKklc_-N7JBqiMBvKZP-89" value="" style="rounded=0;whiteSpace=wrap;html=1;" vertex="1" parent="1">
          <mxGeometry x="250" y="460" width="20" height="40" as="geometry" />
        </mxCell>
        <mxCell id="QgKklc_-N7JBqiMBvKZP-90" value="Кодировщик&lt;div&gt;аудио&lt;/div&gt;" style="rounded=1;whiteSpace=wrap;html=1;fillColor=#2DAAF0;strokeColor=#000000;" vertex="1" parent="1">
          <mxGeometry x="150" y="360" width="130" height="60" as="geometry" />
        </mxCell>
        <mxCell id="QgKklc_-N7JBqiMBvKZP-91" style="edgeStyle=orthogonalEdgeStyle;rounded=0;orthogonalLoop=1;jettySize=auto;html=1;exitX=0.5;exitY=0;exitDx=0;exitDy=0;entryX=0.849;entryY=1.02;entryDx=0;entryDy=0;entryPerimeter=0;" edge="1" parent="1" source="QgKklc_-N7JBqiMBvKZP-89" target="QgKklc_-N7JBqiMBvKZP-90">
          <mxGeometry relative="1" as="geometry" />
        </mxCell>
        <mxCell id="QgKklc_-N7JBqiMBvKZP-92" style="edgeStyle=orthogonalEdgeStyle;rounded=0;orthogonalLoop=1;jettySize=auto;html=1;exitX=0.5;exitY=0;exitDx=0;exitDy=0;entryX=0.615;entryY=1.024;entryDx=0;entryDy=0;entryPerimeter=0;" edge="1" parent="1" source="QgKklc_-N7JBqiMBvKZP-88" target="QgKklc_-N7JBqiMBvKZP-90">
          <mxGeometry relative="1" as="geometry" />
        </mxCell>
        <mxCell id="QgKklc_-N7JBqiMBvKZP-93" style="edgeStyle=orthogonalEdgeStyle;rounded=0;orthogonalLoop=1;jettySize=auto;html=1;exitX=0.5;exitY=0;exitDx=0;exitDy=0;entryX=0.385;entryY=1.016;entryDx=0;entryDy=0;entryPerimeter=0;" edge="1" parent="1" source="QgKklc_-N7JBqiMBvKZP-87" target="QgKklc_-N7JBqiMBvKZP-90">
          <mxGeometry relative="1" as="geometry" />
        </mxCell>
        <mxCell id="QgKklc_-N7JBqiMBvKZP-94" style="edgeStyle=orthogonalEdgeStyle;rounded=0;orthogonalLoop=1;jettySize=auto;html=1;exitX=0.5;exitY=0;exitDx=0;exitDy=0;entryX=0.152;entryY=1.024;entryDx=0;entryDy=0;entryPerimeter=0;" edge="1" parent="1" source="QgKklc_-N7JBqiMBvKZP-86" target="QgKklc_-N7JBqiMBvKZP-90">
          <mxGeometry relative="1" as="geometry" />
        </mxCell>
        <mxCell id="QgKklc_-N7JBqiMBvKZP-95" value="" style="rounded=0;whiteSpace=wrap;html=1;" vertex="1" parent="1">
          <mxGeometry x="160" y="280" width="20" height="40" as="geometry" />
        </mxCell>
        <mxCell id="QgKklc_-N7JBqiMBvKZP-96" value="" style="rounded=0;whiteSpace=wrap;html=1;" vertex="1" parent="1">
          <mxGeometry x="190" y="280" width="20" height="40" as="geometry" />
        </mxCell>
        <mxCell id="QgKklc_-N7JBqiMBvKZP-97" value="" style="rounded=0;whiteSpace=wrap;html=1;" vertex="1" parent="1">
          <mxGeometry x="220" y="280" width="20" height="40" as="geometry" />
        </mxCell>
        <mxCell id="QgKklc_-N7JBqiMBvKZP-98" value="" style="rounded=0;whiteSpace=wrap;html=1;" vertex="1" parent="1">
          <mxGeometry x="250" y="280" width="20" height="40" as="geometry" />
        </mxCell>
        <mxCell id="QgKklc_-N7JBqiMBvKZP-99" value="x&lt;sub&gt;&lt;font style=&quot;font-size: 6px;&quot;&gt;1&lt;/font&gt;&lt;/sub&gt;&amp;nbsp; &amp;nbsp; &amp;nbsp; x&lt;sub&gt;&lt;font style=&quot;font-size: 6px;&quot;&gt;2&lt;/font&gt;&lt;/sub&gt;&amp;nbsp; &amp;nbsp; &amp;nbsp; ...&amp;nbsp; &amp;nbsp; &amp;nbsp; x&lt;sub style=&quot;&quot;&gt;&lt;font style=&quot;font-size: 6px;&quot;&gt;t&lt;/font&gt;&lt;/sub&gt;" style="text;html=1;align=center;verticalAlign=middle;whiteSpace=wrap;rounded=0;" vertex="1" parent="1">
          <mxGeometry x="160" y="510" width="110" height="30" as="geometry" />
        </mxCell>
        <mxCell id="QgKklc_-N7JBqiMBvKZP-100" value="" style="endArrow=classic;html=1;rounded=0;entryX=0.5;entryY=1;entryDx=0;entryDy=0;exitX=0.149;exitY=0;exitDx=0;exitDy=0;exitPerimeter=0;" edge="1" parent="1">
          <mxGeometry width="50" height="50" relative="1" as="geometry">
            <mxPoint x="169.25" y="360" as="sourcePoint" />
            <mxPoint x="170.25" y="320" as="targetPoint" />
          </mxGeometry>
        </mxCell>
        <mxCell id="QgKklc_-N7JBqiMBvKZP-101" value="" style="endArrow=classic;html=1;rounded=0;entryX=0.5;entryY=1;entryDx=0;entryDy=0;exitX=0.149;exitY=0;exitDx=0;exitDy=0;exitPerimeter=0;" edge="1" parent="1">
          <mxGeometry width="50" height="50" relative="1" as="geometry">
            <mxPoint x="199.75" y="360" as="sourcePoint" />
            <mxPoint x="200.75" y="320" as="targetPoint" />
          </mxGeometry>
        </mxCell>
        <mxCell id="QgKklc_-N7JBqiMBvKZP-102" value="" style="endArrow=classic;html=1;rounded=0;entryX=0.5;entryY=1;entryDx=0;entryDy=0;exitX=0.149;exitY=0;exitDx=0;exitDy=0;exitPerimeter=0;" edge="1" parent="1">
          <mxGeometry width="50" height="50" relative="1" as="geometry">
            <mxPoint x="229.75" y="360" as="sourcePoint" />
            <mxPoint x="230.75" y="320" as="targetPoint" />
          </mxGeometry>
        </mxCell>
        <mxCell id="QgKklc_-N7JBqiMBvKZP-103" value="" style="endArrow=classic;html=1;rounded=0;entryX=0.5;entryY=1;entryDx=0;entryDy=0;exitX=0.149;exitY=0;exitDx=0;exitDy=0;exitPerimeter=0;" edge="1" parent="1">
          <mxGeometry width="50" height="50" relative="1" as="geometry">
            <mxPoint x="259.75" y="360" as="sourcePoint" />
            <mxPoint x="260.75" y="320" as="targetPoint" />
          </mxGeometry>
        </mxCell>
        <mxCell id="QgKklc_-N7JBqiMBvKZP-104" value="LLM" style="rounded=1;whiteSpace=wrap;html=1;fillColor=#53D98A;strokeColor=#000000;" vertex="1" parent="1">
          <mxGeometry x="150" y="190" width="280" height="60" as="geometry" />
        </mxCell>
        <mxCell id="QgKklc_-N7JBqiMBvKZP-105" style="edgeStyle=orthogonalEdgeStyle;rounded=0;orthogonalLoop=1;jettySize=auto;html=1;exitX=0.5;exitY=0;exitDx=0;exitDy=0;entryX=0.07;entryY=1.005;entryDx=0;entryDy=0;entryPerimeter=0;" edge="1" parent="1" source="QgKklc_-N7JBqiMBvKZP-95" target="QgKklc_-N7JBqiMBvKZP-104">
          <mxGeometry relative="1" as="geometry" />
        </mxCell>
        <mxCell id="QgKklc_-N7JBqiMBvKZP-106" style="edgeStyle=orthogonalEdgeStyle;rounded=0;orthogonalLoop=1;jettySize=auto;html=1;exitX=0.5;exitY=0;exitDx=0;exitDy=0;entryX=0.287;entryY=1.024;entryDx=0;entryDy=0;entryPerimeter=0;" edge="1" parent="1" source="QgKklc_-N7JBqiMBvKZP-97" target="QgKklc_-N7JBqiMBvKZP-104">
          <mxGeometry relative="1" as="geometry" />
        </mxCell>
        <mxCell id="QgKklc_-N7JBqiMBvKZP-107" style="edgeStyle=orthogonalEdgeStyle;rounded=0;orthogonalLoop=1;jettySize=auto;html=1;exitX=0.5;exitY=0;exitDx=0;exitDy=0;entryX=0.391;entryY=1.017;entryDx=0;entryDy=0;entryPerimeter=0;" edge="1" parent="1" source="QgKklc_-N7JBqiMBvKZP-98" target="QgKklc_-N7JBqiMBvKZP-104">
          <mxGeometry relative="1" as="geometry" />
        </mxCell>
        <mxCell id="QgKklc_-N7JBqiMBvKZP-108" style="edgeStyle=orthogonalEdgeStyle;rounded=0;orthogonalLoop=1;jettySize=auto;html=1;exitX=0.5;exitY=0;exitDx=0;exitDy=0;entryX=0.175;entryY=1.049;entryDx=0;entryDy=0;entryPerimeter=0;" edge="1" parent="1" source="QgKklc_-N7JBqiMBvKZP-96" target="QgKklc_-N7JBqiMBvKZP-104">
          <mxGeometry relative="1" as="geometry" />
        </mxCell>
        <mxCell id="QgKklc_-N7JBqiMBvKZP-109" value="" style="rounded=0;whiteSpace=wrap;html=1;" vertex="1" parent="1">
          <mxGeometry x="310" y="280" width="20" height="40" as="geometry" />
        </mxCell>
        <mxCell id="QgKklc_-N7JBqiMBvKZP-110" value="" style="rounded=0;whiteSpace=wrap;html=1;" vertex="1" parent="1">
          <mxGeometry x="340" y="280" width="20" height="40" as="geometry" />
        </mxCell>
        <mxCell id="QgKklc_-N7JBqiMBvKZP-111" value="" style="rounded=0;whiteSpace=wrap;html=1;" vertex="1" parent="1">
          <mxGeometry x="370" y="280" width="20" height="40" as="geometry" />
        </mxCell>
        <mxCell id="QgKklc_-N7JBqiMBvKZP-112" value="" style="rounded=0;whiteSpace=wrap;html=1;" vertex="1" parent="1">
          <mxGeometry x="400" y="280" width="20" height="40" as="geometry" />
        </mxCell>
        <mxCell id="QgKklc_-N7JBqiMBvKZP-113" style="edgeStyle=orthogonalEdgeStyle;rounded=0;orthogonalLoop=1;jettySize=auto;html=1;exitX=0.5;exitY=0;exitDx=0;exitDy=0;entryX=0.07;entryY=1.005;entryDx=0;entryDy=0;entryPerimeter=0;" edge="1" parent="1" source="QgKklc_-N7JBqiMBvKZP-109">
          <mxGeometry relative="1" as="geometry">
            <mxPoint x="320" y="250" as="targetPoint" />
          </mxGeometry>
        </mxCell>
        <mxCell id="QgKklc_-N7JBqiMBvKZP-114" style="edgeStyle=orthogonalEdgeStyle;rounded=0;orthogonalLoop=1;jettySize=auto;html=1;exitX=0.5;exitY=0;exitDx=0;exitDy=0;entryX=0.287;entryY=1.024;entryDx=0;entryDy=0;entryPerimeter=0;" edge="1" parent="1" source="QgKklc_-N7JBqiMBvKZP-111">
          <mxGeometry relative="1" as="geometry">
            <mxPoint x="380" y="251" as="targetPoint" />
          </mxGeometry>
        </mxCell>
        <mxCell id="QgKklc_-N7JBqiMBvKZP-115" style="edgeStyle=orthogonalEdgeStyle;rounded=0;orthogonalLoop=1;jettySize=auto;html=1;exitX=0.5;exitY=0;exitDx=0;exitDy=0;entryX=0.391;entryY=1.017;entryDx=0;entryDy=0;entryPerimeter=0;" edge="1" parent="1" source="QgKklc_-N7JBqiMBvKZP-112">
          <mxGeometry relative="1" as="geometry">
            <mxPoint x="409" y="251" as="targetPoint" />
          </mxGeometry>
        </mxCell>
        <mxCell id="QgKklc_-N7JBqiMBvKZP-116" style="edgeStyle=orthogonalEdgeStyle;rounded=0;orthogonalLoop=1;jettySize=auto;html=1;exitX=0.5;exitY=0;exitDx=0;exitDy=0;entryX=0.175;entryY=1.049;entryDx=0;entryDy=0;entryPerimeter=0;" edge="1" parent="1" source="QgKklc_-N7JBqiMBvKZP-110">
          <mxGeometry relative="1" as="geometry">
            <mxPoint x="349" y="253" as="targetPoint" />
          </mxGeometry>
        </mxCell>
        <mxCell id="QgKklc_-N7JBqiMBvKZP-117" value="Текстовый ввод&amp;nbsp;" style="text;html=1;align=center;verticalAlign=middle;whiteSpace=wrap;rounded=0;" vertex="1" parent="1">
          <mxGeometry x="310" y="330" width="110" height="30" as="geometry" />
        </mxCell>
        <mxCell id="QgKklc_-N7JBqiMBvKZP-118" value="" style="rounded=0;whiteSpace=wrap;html=1;" vertex="1" parent="1">
          <mxGeometry x="160" y="110" width="20" height="40" as="geometry" />
        </mxCell>
        <mxCell id="QgKklc_-N7JBqiMBvKZP-119" value="" style="endArrow=classic;html=1;rounded=0;entryX=0.5;entryY=1;entryDx=0;entryDy=0;" edge="1" parent="1" target="QgKklc_-N7JBqiMBvKZP-118">
          <mxGeometry width="50" height="50" relative="1" as="geometry">
            <mxPoint x="170" y="190" as="sourcePoint" />
            <mxPoint x="220" y="140" as="targetPoint" />
          </mxGeometry>
        </mxCell>
        <mxCell id="QgKklc_-N7JBqiMBvKZP-120" value="y&lt;font size=&quot;1&quot;&gt;&lt;sub&gt;t&lt;/sub&gt;&lt;/font&gt;" style="text;html=1;align=center;verticalAlign=middle;whiteSpace=wrap;rounded=0;" vertex="1" parent="1">
          <mxGeometry x="140" y="70" width="60" height="30" as="geometry" />
        </mxCell>
      </root>
    </mxGraphModel>
  </diagram>
</mxfile>
